<svg id="svg" version="1.1" xmlns="http://www.w3.org/2000/svg" style="display: block;" viewBox="0 0 128 128"><path d="M0 0 C42.24 0 84.48 0 128 0 C128 42.24 128 84.48 128 128 C85.76 128 43.52 128 0 128 C0 85.76 0 43.52 0 0 Z " transform="translate(0,0)" style="fill: #FE0025;"/><path d="M0 0 C1.16744499 0.12288895 1.16744499 0.12288895 2.35847473 0.2482605 C4.01448059 0.4225769 5.67048645 0.59689331 7.32649231 0.77120972 C8.15693054 0.85862427 8.98736877 0.94603882 9.8429718 1.03610229 C12.39346822 1.3045756 14.94396464 1.57304891 17.49446106 1.84152222 C19.40714783 2.04285767 19.40714783 2.04285767 21.35847473 2.2482605 C21.60697204 8.34944292 21.78771674 14.44764097 21.90779114 20.55270386 C21.95787024 22.62581725 22.02595949 24.69858112 22.11286926 26.77047729 C22.81290239 43.89658191 22.81290239 43.89658191 19.35163879 49.49313354 C16.80984805 51.8298865 14.35508537 53.54580253 11.35847473 55.2482605 C10.0545436 56.1505439 8.75222938 57.05517272 7.45222473 57.96310425 C6.2581521 58.71016923 5.0602383 59.45113142 3.85847473 60.1857605 C-2.18705649 64.00491594 -6.79427453 68.07749167 -11.49308777 73.50997925 C-13.64152527 75.2482605 -13.64152527 75.2482605 -16.41496277 75.01779175 C-17.14972839 74.76384644 -17.88449402 74.50990112 -18.64152527 74.2482605 C-19.88486495 70.51824145 -20.16445867 67.12238685 -19.64152527 63.2482605 C-17.76317494 59.56380408 -15.64808639 57.1554198 -12.45402527 54.6232605 C-9.56710854 52.5524848 -9.56710854 52.5524848 -8.70402527 49.9982605 C-8.68340027 49.4207605 -8.66277527 48.8432605 -8.64152527 48.2482605 C-10.83270846 46.0570773 -16.54669518 46.89584294 -19.65129089 46.818573 C-22.77344385 46.68146107 -25.3064443 46.40459688 -28.15324402 45.0763855 C-30.31665161 42.41897145 -29.97109915 40.74315343 -29.64152527 37.3732605 C-28.85282959 30.32185258 -27.08165264 23.89470268 -24.64152527 17.2482605 C-24.41803406 16.63176636 -24.19454285 16.01527222 -23.96427917 15.38009644 C-23.25886573 13.47018833 -22.51997538 11.57718522 -21.76652527 9.6857605 C-21.31535339 8.55009644 -20.86418152 7.41443237 -20.39933777 6.24435425 C-15.36228877 -2.34101593 -8.69751766 -0.91552817 0 0 Z " transform="translate(58.64152526855469,29.751739501953125)" style="fill: #FFFCFC;"/><path d="M0 0 C17.49 0 34.98 0 53 0 C53 17.16 53 34.32 53 52 C51.46060275 48.92120549 50.33491178 46.16844341 49.25 42.9375 C42.70051939 24.93837992 31.53222132 13.44306674 14.375 5.1875 C9.64159778 3.11706219 5.0776371 1.91563948 0 1 C0 0.67 0 0.34 0 0 Z " transform="translate(75,0)" style="fill: #000000;"/><path d="M0 0 C17.49 0 34.98 0 53 0 C53 0.33 53 0.66 53 1 C52.30777344 1.12375 51.61554687 1.2475 50.90234375 1.375 C34.3211178 4.8703836 20.50477298 13.91463821 10.625 27.75 C7.14016379 33.26289662 5.00287704 38.77428387 3.0078125 44.96875 C2 48 2 48 0 52 C0 34.84 0 17.68 0 0 Z " transform="translate(0,0)" style="fill: #000000;"/><path d="M0 0 C0.33 0 0.66 0 1 0 C1 17.16 1 34.32 1 52 C-16.16 52 -33.32 52 -51 52 C-47.48918409 50.24459204 -44.28572849 49.11659279 -40.5625 47.9375 C-23.9241754 42.02241994 -12.43764709 30.37580023 -4.6640625 14.71875 C-2.45261479 9.98728049 -1.02129055 5.11709119 0 0 Z " transform="translate(127,76)" style="fill: #000000;"/><path d="M0 0 C1.53939725 3.07879451 2.66508822 5.83155659 3.75 9.0625 C9.69927715 25.41215583 20.16506407 38.42386985 36 46 C41.2152188 48.06910666 46.57309391 49.59746193 52 51 C52 51.33 52 51.66 52 52 C34.84 52 17.68 52 0 52 C0 34.84 0 17.68 0 0 Z " transform="translate(0,76)" style="fill: #000000;"/><path d="M0 0 C4.95 0 9.9 0 15 0 C15 13.86 15 27.72 15 42 C10.05 42 5.1 42 0 42 C0 28.14 0 14.28 0 0 Z " transform="translate(85,33)" style="fill: #FFF4F5;"/></svg>